<svg width="20" height="20" viewBox="0 0 20 20" fill="none" xmlns="http://www.w3.org/2000/svg">
<path d="M12.5 13.3334H7.49998C7.27897 13.3334 7.067 13.4212 6.91072 13.5774C6.75444 13.7337 6.66665 13.9457 6.66665 14.1667C6.66665 14.3877 6.75444 14.5997 6.91072 14.7559C7.067 14.9122 7.27897 15 7.49998 15H12.5C12.721 15 12.933 14.9122 13.0892 14.7559C13.2455 14.5997 13.3333 14.3877 13.3333 14.1667C13.3333 13.9457 13.2455 13.7337 13.0892 13.5774C12.933 13.4212 12.721 13.3334 12.5 13.3334ZM7.49998 8.33335H8.33331C8.55433 8.33335 8.76629 8.24556 8.92257 8.08928C9.07885 7.933 9.16665 7.72103 9.16665 7.50002C9.16665 7.27901 9.07885 7.06705 8.92257 6.91077C8.76629 6.75448 8.55433 6.66669 8.33331 6.66669H7.49998C7.27897 6.66669 7.067 6.75448 6.91072 6.91077C6.75444 7.06705 6.66665 7.27901 6.66665 7.50002C6.66665 7.72103 6.75444 7.933 6.91072 8.08928C7.067 8.24556 7.27897 8.33335 7.49998 8.33335ZM12.5 10H7.49998C7.27897 10 7.067 10.0878 6.91072 10.2441C6.75444 10.4004 6.66665 10.6123 6.66665 10.8334C6.66665 11.0544 6.75444 11.2663 6.91072 11.4226C7.067 11.5789 7.27897 11.6667 7.49998 11.6667H12.5C12.721 11.6667 12.933 11.5789 13.0892 11.4226C13.2455 11.2663 13.3333 11.0544 13.3333 10.8334C13.3333 10.6123 13.2455 10.4004 13.0892 10.2441C12.933 10.0878 12.721 10 12.5 10ZM16.425 12.7417C16.3457 12.6658 16.2523 12.6063 16.15 12.5667C16.0505 12.5216 15.9425 12.4982 15.8333 12.4982C15.7241 12.4982 15.6161 12.5216 15.5166 12.5667C15.4144 12.6063 15.3209 12.6658 15.2416 12.7417C15.168 12.8227 15.1088 12.9157 15.0666 13.0167C15.0028 13.1684 14.9854 13.3357 15.0165 13.4974C15.0477 13.659 15.126 13.8078 15.2416 13.925C15.3195 14.0023 15.4119 14.0634 15.5134 14.1048C15.6149 14.1463 15.7236 14.1673 15.8333 14.1667C15.9422 14.1654 16.0498 14.1427 16.15 14.1C16.251 14.0578 16.344 13.9986 16.425 13.925C16.5406 13.8078 16.6189 13.659 16.6501 13.4974C16.6812 13.3357 16.6638 13.1684 16.6 13.0167C16.5578 12.9157 16.4986 12.8227 16.425 12.7417ZM16.6666 7.45002C16.658 7.37347 16.6412 7.29805 16.6166 7.22502V7.15002C16.5766 7.06434 16.5231 6.98557 16.4583 6.91669L11.4583 1.91669C11.3894 1.85187 11.3107 1.79842 11.225 1.75835C11.2001 1.75482 11.1749 1.75482 11.15 1.75835C11.0653 1.7098 10.9718 1.67864 10.875 1.66669H5.83331C5.17027 1.66669 4.53439 1.93008 4.06555 2.39892C3.59671 2.86776 3.33331 3.50365 3.33331 4.16669V15.8334C3.33331 16.4964 3.59671 17.1323 4.06555 17.6011C4.53439 18.07 5.17027 18.3334 5.83331 18.3334H12.5C12.721 18.3334 12.933 18.2456 13.0892 18.0893C13.2455 17.933 13.3333 17.721 13.3333 17.5C13.3333 17.279 13.2455 17.067 13.0892 16.9108C12.933 16.7545 12.721 16.6667 12.5 16.6667H5.83331C5.6123 16.6667 5.40034 16.5789 5.24406 16.4226C5.08778 16.2663 4.99998 16.0544 4.99998 15.8334V4.16669C4.99998 3.94567 5.08778 3.73371 5.24406 3.57743C5.40034 3.42115 5.6123 3.33335 5.83331 3.33335H9.99998V5.83335C9.99998 6.4964 10.2634 7.13228 10.7322 7.60112C11.2011 8.06996 11.8369 8.33335 12.5 8.33335H15V10C15 10.221 15.0878 10.433 15.2441 10.5893C15.4003 10.7456 15.6123 10.8334 15.8333 10.8334C16.0543 10.8334 16.2663 10.7456 16.4226 10.5893C16.5788 10.433 16.6666 10.221 16.6666 10V7.50002C16.6666 7.50002 16.6666 7.50002 16.6666 7.45002ZM12.5 6.66669C12.279 6.66669 12.067 6.57889 11.9107 6.42261C11.7544 6.26633 11.6666 6.05437 11.6666 5.83335V4.50835L13.825 6.66669H12.5ZM15.8333 15C15.6123 15 15.4003 15.0878 15.2441 15.2441C15.0878 15.4004 15 15.6123 15 15.8334V17.5C15 17.721 15.0878 17.933 15.2441 18.0893C15.4003 18.2456 15.6123 18.3334 15.8333 18.3334C16.0543 18.3334 16.2663 18.2456 16.4226 18.0893C16.5788 17.933 16.6666 17.721 16.6666 17.5V15.8334C16.6666 15.6123 16.5788 15.4004 16.4226 15.2441C16.2663 15.0878 16.0543 15 15.8333 15Z" fill="#ABABAB"/>
</svg>
