<svg width="20" height="20" viewBox="0 0 20 20" fill="none" xmlns="http://www.w3.org/2000/svg">
<path d="M15 3.73336C13.6739 2.40728 11.8754 1.66229 10 1.66229C8.12466 1.66229 6.32611 2.40728 5.00002 3.73336C3.67394 5.05944 2.92896 6.858 2.92896 8.73336C2.92896 10.6087 3.67394 12.4073 5.00002 13.7334L9.39169 18.1334C9.46916 18.2115 9.56133 18.2735 9.66288 18.3158C9.76442 18.3581 9.87335 18.3799 9.98336 18.3799C10.0934 18.3799 10.2023 18.3581 10.3038 18.3158C10.4054 18.2735 10.4976 18.2115 10.575 18.1334L15 13.6917C16.3206 12.3711 17.0624 10.5801 17.0624 8.71253C17.0624 6.84498 16.3206 5.05393 15 3.73336ZM13.8084 12.5L10 16.325L6.19169 12.5C5.43931 11.747 4.92709 10.7877 4.71977 9.7436C4.51245 8.69947 4.61935 7.61732 5.02694 6.63393C5.43454 5.65054 6.12454 4.81007 7.00971 4.21876C7.89489 3.62745 8.93551 3.31184 10 3.31184C11.0645 3.31184 12.1052 3.62745 12.9903 4.21876C13.8755 4.81007 14.5655 5.65054 14.9731 6.63393C15.3807 7.61732 15.4876 8.69947 15.2803 9.7436C15.073 10.7877 14.5607 11.747 13.8084 12.5ZM7.50002 6.17503C6.82728 6.84984 6.44952 7.76383 6.44952 8.71669C6.44952 9.66955 6.82728 10.5836 7.50002 11.2584C7.99982 11.759 8.63635 12.1009 9.32973 12.2412C10.0231 12.3815 10.7425 12.3138 11.3976 12.0468C12.0527 11.7798 12.6143 11.3253 13.0121 10.7402C13.4098 10.1552 13.626 9.46575 13.6334 8.75836C13.6371 8.28603 13.5461 7.81774 13.3658 7.38118C13.1854 6.94462 12.9194 6.54866 12.5834 6.21669C12.2531 5.87884 11.8593 5.60964 11.4245 5.42458C10.9898 5.23952 10.5228 5.14226 10.0504 5.13838C9.57791 5.13451 9.10935 5.22411 8.67167 5.40202C8.23398 5.57993 7.83579 5.84264 7.50002 6.17503ZM11.4084 10.075C11.0926 10.3956 10.6752 10.5966 10.2276 10.6436C9.78006 10.6905 9.33008 10.5806 8.95461 10.3325C8.57915 10.0844 8.30152 9.71356 8.1692 9.28343C8.03687 8.8533 8.05806 8.39056 8.22915 7.97432C8.40024 7.55809 8.71061 7.21421 9.10718 7.00147C9.50375 6.78874 9.9619 6.72037 10.4033 6.80804C10.8447 6.89571 11.2419 7.13399 11.5271 7.48214C11.8123 7.83028 11.9677 8.26667 11.9667 8.71669C11.9546 9.23109 11.7388 9.71963 11.3667 10.075H11.4084Z" fill="#ABABAB"/>
</svg>
