<svg width="20" height="20" viewBox="0 0 20 20" fill="none" xmlns="http://www.w3.org/2000/svg">
<path d="M10 15.8333C10.1648 15.8333 10.326 15.7844 10.463 15.6929C10.6 15.6013 10.7068 15.4712 10.7699 15.3189C10.833 15.1666 10.8495 14.9991 10.8173 14.8374C10.7852 14.6758 10.7058 14.5273 10.5893 14.4107C10.4727 14.2942 10.3242 14.2148 10.1626 14.1827C10.0009 14.1505 9.83339 14.167 9.68112 14.2301C9.52885 14.2932 9.3987 14.4 9.30713 14.537C9.21556 14.674 9.16669 14.8352 9.16669 15C9.16669 15.221 9.25449 15.433 9.41077 15.5892C9.56705 15.7455 9.77901 15.8333 10 15.8333ZM14.1667 15.8333C14.3315 15.8333 14.4926 15.7844 14.6297 15.6929C14.7667 15.6013 14.8735 15.4712 14.9366 15.3189C14.9997 15.1666 15.0162 14.9991 14.984 14.8374C14.9519 14.6758 14.8725 14.5273 14.7559 14.4107C14.6394 14.2942 14.4909 14.2148 14.3293 14.1827C14.1676 14.1505 14.0001 14.167 13.8478 14.2301C13.6955 14.2932 13.5654 14.4 13.4738 14.537C13.3822 14.674 13.3334 14.8352 13.3334 15C13.3334 15.221 13.4212 15.433 13.5774 15.5892C13.7337 15.7455 13.9457 15.8333 14.1667 15.8333ZM14.1667 12.5C14.3315 12.5 14.4926 12.4511 14.6297 12.3595C14.7667 12.268 14.8735 12.1378 14.9366 11.9855C14.9997 11.8333 15.0162 11.6657 14.984 11.5041C14.9519 11.3424 14.8725 11.1939 14.7559 11.0774C14.6394 10.9608 14.4909 10.8815 14.3293 10.8493C14.1676 10.8172 14.0001 10.8337 13.8478 10.8967C13.6955 10.9598 13.5654 11.0666 13.4738 11.2037C13.3822 11.3407 13.3334 11.5018 13.3334 11.6666C13.3334 11.8877 13.4212 12.0996 13.5774 12.2559C13.7337 12.4122 13.9457 12.5 14.1667 12.5ZM10 12.5C10.1648 12.5 10.326 12.4511 10.463 12.3595C10.6 12.268 10.7068 12.1378 10.7699 11.9855C10.833 11.8333 10.8495 11.6657 10.8173 11.5041C10.7852 11.3424 10.7058 11.1939 10.5893 11.0774C10.4727 10.9608 10.3242 10.8815 10.1626 10.8493C10.0009 10.8172 9.83339 10.8337 9.68112 10.8967C9.52885 10.9598 9.3987 11.0666 9.30713 11.2037C9.21556 11.3407 9.16669 11.5018 9.16669 11.6666C9.16669 11.8877 9.25449 12.0996 9.41077 12.2559C9.56705 12.4122 9.77901 12.5 10 12.5ZM15.8334 2.49998H15V1.66665C15 1.44563 14.9122 1.23367 14.7559 1.07739C14.5997 0.92111 14.3877 0.833313 14.1667 0.833313C13.9457 0.833313 13.7337 0.92111 13.5774 1.07739C13.4212 1.23367 13.3334 1.44563 13.3334 1.66665V2.49998H6.66669V1.66665C6.66669 1.44563 6.57889 1.23367 6.42261 1.07739C6.26633 0.92111 6.05437 0.833313 5.83335 0.833313C5.61234 0.833313 5.40038 0.92111 5.2441 1.07739C5.08782 1.23367 5.00002 1.44563 5.00002 1.66665V2.49998H4.16669C3.50365 2.49998 2.86776 2.76337 2.39892 3.23221C1.93008 3.70105 1.66669 4.33694 1.66669 4.99998V16.6666C1.66669 17.3297 1.93008 17.9656 2.39892 18.4344C2.86776 18.9033 3.50365 19.1666 4.16669 19.1666H15.8334C16.4964 19.1666 17.1323 18.9033 17.6011 18.4344C18.07 17.9656 18.3334 17.3297 18.3334 16.6666V4.99998C18.3334 4.33694 18.07 3.70105 17.6011 3.23221C17.1323 2.76337 16.4964 2.49998 15.8334 2.49998ZM16.6667 16.6666C16.6667 16.8877 16.5789 17.0996 16.4226 17.2559C16.2663 17.4122 16.0544 17.5 15.8334 17.5H4.16669C3.94567 17.5 3.73371 17.4122 3.57743 17.2559C3.42115 17.0996 3.33335 16.8877 3.33335 16.6666V9.16665H16.6667V16.6666ZM16.6667 7.49998H3.33335V4.99998C3.33335 4.77897 3.42115 4.567 3.57743 4.41072C3.73371 4.25444 3.94567 4.16665 4.16669 4.16665H5.00002V4.99998C5.00002 5.22099 5.08782 5.43295 5.2441 5.58923C5.40038 5.74551 5.61234 5.83331 5.83335 5.83331C6.05437 5.83331 6.26633 5.74551 6.42261 5.58923C6.57889 5.43295 6.66669 5.22099 6.66669 4.99998V4.16665H13.3334V4.99998C13.3334 5.22099 13.4212 5.43295 13.5774 5.58923C13.7337 5.74551 13.9457 5.83331 14.1667 5.83331C14.3877 5.83331 14.5997 5.74551 14.7559 5.58923C14.9122 5.43295 15 5.22099 15 4.99998V4.16665H15.8334C16.0544 4.16665 16.2663 4.25444 16.4226 4.41072C16.5789 4.567 16.6667 4.77897 16.6667 4.99998V7.49998ZM5.83335 12.5C5.99817 12.5 6.15929 12.4511 6.29633 12.3595C6.43337 12.268 6.54018 12.1378 6.60325 11.9855C6.66633 11.8333 6.68283 11.6657 6.65067 11.5041C6.61852 11.3424 6.53915 11.1939 6.42261 11.0774C6.30607 10.9608 6.15758 10.8815 5.99593 10.8493C5.83428 10.8172 5.66672 10.8337 5.51445 10.8967C5.36218 10.9598 5.23203 11.0666 5.14046 11.2037C5.04889 11.3407 5.00002 11.5018 5.00002 11.6666C5.00002 11.8877 5.08782 12.0996 5.2441 12.2559C5.40038 12.4122 5.61234 12.5 5.83335 12.5ZM5.83335 15.8333C5.99817 15.8333 6.15929 15.7844 6.29633 15.6929C6.43337 15.6013 6.54018 15.4712 6.60325 15.3189C6.66633 15.1666 6.68283 14.9991 6.65067 14.8374C6.61852 14.6758 6.53915 14.5273 6.42261 14.4107C6.30607 14.2942 6.15758 14.2148 5.99593 14.1827C5.83428 14.1505 5.66672 14.167 5.51445 14.2301C5.36218 14.2932 5.23203 14.4 5.14046 14.537C5.04889 14.674 5.00002 14.8352 5.00002 15C5.00002 15.221 5.08782 15.433 5.2441 15.5892C5.40038 15.7455 5.61234 15.8333 5.83335 15.8333Z" fill="#ABABAB"/>
</svg>
